<?xml version="1.0" standalone="no"?>
<!DOCTYPE svg PUBLIC "-//W3C//DTD SVG 20010904//EN"
 "http://www.w3.org/TR/2001/REC-SVG-20010904/DTD/svg10.dtd">
<svg version="1.0" xmlns="http://www.w3.org/2000/svg"
 width="4000.000000pt" height="2000.000000pt" viewBox="0 0 4000.000000 2000.000000"
 preserveAspectRatio="xMidYMid meet">

<g transform="translate(0.000000,2000.000000) scale(0.100000,-0.100000)"
fill="#000000" stroke="none">
<path d="M3921 12869 l-104 -108 102 -107 102 -107 -27 -28 -27 -28 103 -110
c57 -61 106 -111 109 -111 4 0 53 46 109 103 l103 103 -107 113 -107 112 33
34 34 35 -100 102 c-54 57 -103 104 -109 104 -5 1 -57 -47 -114 -107z"/>
<path d="M35121 12873 c-56 -58 -100 -110 -99 -114 2 -4 52 -58 113 -120 l109
-112 104 107 103 107 -112 119 c-61 66 -113 120 -114 120 -2 0 -49 -48 -104
-107z"/>
<path d="M4421 12826 c-40 -41 -72 -79 -70 -84 6 -15 150 -162 159 -162 5 0
40 35 78 77 l70 78 -72 79 c-40 44 -77 81 -82 83 -5 2 -42 -30 -83 -71z"/>
<path d="M34697 12812 l-77 -77 76 -83 c42 -46 82 -82 88 -80 6 2 44 37 83 78
l72 76 -82 82 -82 82 -78 -78z"/>
<path d="M4861 12769 l-63 -69 68 -70 69 -71 69 70 69 69 -63 71 c-35 39 -68
71 -74 70 -6 0 -40 -32 -75 -70z"/>
<path d="M34261 12766 c-85 -86 -86 -71 13 -173 33 -35 65 -63 72 -63 6 0 41
34 79 76 l68 76 -79 79 -79 79 -74 -74z"/>
<path d="M35423 12601 l-71 -76 73 -80 73 -80 27 25 c15 14 50 51 77 83 l50
57 -73 75 c-40 41 -75 74 -78 74 -3 -1 -38 -36 -78 -78z"/>
<path d="M3698 12603 l-67 -68 71 -74 70 -75 63 70 c35 38 64 74 65 79 0 10
-120 135 -131 135 -2 0 -34 -30 -71 -67z"/>
<path d="M35005 12598 c-39 -40 -83 -88 -99 -105 l-29 -33 94 -97 c51 -54 98
-100 102 -102 10 -4 156 137 187 180 l19 25 -102 102 -102 102 -70 -72z"/>
<path d="M5311 12565 c-33 -36 -61 -71 -61 -78 0 -7 29 -42 65 -77 l65 -64 65
64 c36 35 65 68 65 73 0 12 -120 147 -130 147 -4 0 -35 -29 -69 -65z"/>
<path d="M33821 12566 c-35 -35 -62 -69 -60 -74 2 -6 33 -40 67 -76 l64 -66
68 72 69 73 -67 68 c-37 37 -69 67 -72 67 -3 0 -34 -29 -69 -64z"/>
<path d="M4648 12499 c-40 -44 -73 -84 -73 -88 0 -4 35 -45 79 -92 l78 -84 84
90 84 89 -82 83 c-45 46 -86 83 -90 83 -3 0 -40 -36 -80 -81z"/>
<path d="M34457 12485 l-79 -85 77 -83 c43 -45 81 -83 84 -85 4 -1 45 39 90
89 l84 91 -79 79 c-43 43 -83 79 -89 79 -5 0 -45 -38 -88 -85z"/>
<path d="M4991 12472 l-60 -69 66 -72 66 -72 68 67 c38 38 69 72 69 77 0 14
-122 137 -136 137 -6 0 -39 -31 -73 -68z"/>
<path d="M34135 12450 l-70 -70 73 -73 73 -72 65 70 c35 38 64 72 64 75 0 3
-30 36 -68 73 l-68 67 -69 -70z"/>
<path d="M5600 12435 l-44 -45 42 -42 42 -42 40 39 c22 21 40 44 40 50 0 6
-17 28 -38 48 l-38 37 -44 -45z"/>
<path d="M33590 12415 l-44 -45 47 -48 47 -47 46 47 47 46 -39 46 c-21 25 -44
45 -49 46 -6 0 -31 -20 -55 -45z"/>
<path d="M3210 12276 c-236 -245 -675 -699 -1035 -1071 -468 -483 -515 -535
-574 -630 -196 -314 -211 -625 -46 -955 85 -170 184 -288 671 -800 267 -281
1108 -1119 1213 -1209 l54 -46 114 120 114 120 126 -130 126 -130 138 145 139
145 26 -32 c14 -18 29 -33 33 -33 5 0 47 39 94 87 l86 88 -29 30 c-17 17 -30
36 -30 43 0 7 57 73 128 148 131 140 141 152 126 163 -5 3 -63 61 -128 128
l-119 122 72 77 72 77 -288 291 c-723 728 -751 758 -797 876 -46 119 -25 261
55 375 62 89 378 437 750 826 l169 176 -56 62 c-49 54 -54 63 -43 78 8 10 62
71 121 138 60 66 108 125 108 130 0 6 -62 72 -138 148 l-137 137 -119 -116
-119 -115 -79 78 c-43 42 -78 82 -78 88 1 5 52 64 115 130 l113 119 -78 86
c-43 47 -108 114 -145 150 l-67 65 -117 -123 -118 -122 -118 120 c-66 66 -124
120 -130 119 -5 -1 -84 -78 -175 -173z m650 -373 c0 -14 -200 -230 -215 -232
-6 -1 -60 49 -120 109 -128 128 -129 98 8 262 l91 109 118 -118 c65 -65 118
-123 118 -130z m-36 -3668 l118 -125 -123 -128 c-68 -70 -126 -128 -129 -130
-5 -2 -148 148 -206 217 l-26 31 117 130 c64 71 120 130 124 130 4 0 60 -56
125 -125z m413 -49 l78 -75 -86 -86 -86 -87 -69 72 c-38 40 -69 77 -69 83 0
15 128 165 142 166 6 1 47 -32 90 -73z"/>
<path d="M4406 12380 l-67 -71 62 -67 c34 -37 67 -69 72 -71 11 -4 137 119
137 134 0 6 -31 41 -68 78 l-69 68 -67 -71z"/>
<path d="M35241 12309 l-134 -140 -34 32 -33 33 -85 -84 c-47 -47 -85 -89 -85
-94 0 -6 14 -25 31 -42 l32 -33 -138 -146 -137 -147 126 -128 c69 -69 126
-130 126 -134 0 -5 -30 -42 -67 -83 l-66 -74 89 -92 c49 -50 265 -270 481
-487 215 -217 406 -413 424 -435 17 -22 48 -74 68 -115 34 -71 36 -81 36 -175
0 -165 -20 -197 -369 -579 -101 -111 -282 -304 -403 -431 l-220 -230 53 -60
c30 -33 54 -63 54 -66 0 -3 -48 -59 -106 -125 -59 -65 -113 -127 -121 -136
-14 -16 -4 -29 118 -158 74 -77 139 -140 144 -140 6 0 62 50 124 110 62 61
116 110 120 110 4 0 41 -37 82 -83 l76 -82 -118 -124 -117 -125 140 -148 c78
-81 145 -148 149 -148 4 0 60 55 124 123 l116 122 117 -124 c65 -68 122 -122
127 -120 10 4 156 153 611 624 149 154 450 465 669 690 219 226 424 446 457
489 78 105 152 258 183 380 50 199 27 409 -69 611 -99 208 -187 313 -784 938
-395 412 -1142 1147 -1167 1147 -5 0 -58 -52 -119 -116 l-111 -116 -124 126
c-68 69 -127 126 -130 126 -3 0 -66 -63 -140 -141z m542 -280 c59 -64 107
-120 107 -125 0 -5 -33 -45 -72 -89 -39 -44 -91 -102 -115 -129 l-44 -49 -120
119 c-65 65 -119 123 -119 129 0 13 240 267 249 263 4 -2 55 -55 114 -119z
m-494 -43 l73 -74 -72 -83 c-39 -46 -77 -85 -83 -87 -7 -1 -46 31 -86 72 l-75
75 24 28 c46 53 134 143 140 143 3 0 39 -33 79 -74z m538 -3768 l112 -113
-107 -129 -107 -128 -117 123 c-65 68 -116 129 -115 134 5 16 201 223 212 224
6 1 61 -50 122 -111z"/>
<path d="M34721 12369 l-64 -71 69 -69 69 -69 69 69 69 69 -64 71 c-35 39 -68
71 -74 70 -5 0 -39 -32 -74 -70z"/>
<path d="M15435 12384 c-440 -45 -757 -147 -1055 -342 -525 -343 -871 -907
-971 -1586 -86 -590 -13 -1162 206 -1611 248 -510 687 -894 1215 -1063 251
-81 440 -107 760 -107 275 1 394 14 615 70 534 134 985 468 1275 945 256 421
382 1001 341 1575 -48 672 -256 1156 -667 1555 -314 305 -656 470 -1130 545
-95 15 -498 28 -589 19z m470 -918 c190 -49 336 -135 471 -279 245 -261 374
-668 374 -1177 0 -897 -437 -1448 -1150 -1450 -417 -1 -758 211 -964 600 -187
355 -238 936 -121 1400 66 262 195 493 367 656 41 39 96 85 122 103 120 83
297 150 451 170 122 17 336 6 450 -23z"/>
<path d="M19600 12383 c-278 -27 -474 -64 -643 -123 -388 -133 -657 -355 -808
-665 -137 -282 -156 -682 -48 -993 62 -178 149 -311 301 -458 196 -192 375
-299 798 -479 414 -176 596 -278 726 -409 48 -48 82 -93 105 -141 32 -65 34
-76 34 -170 0 -93 -2 -105 -33 -167 -109 -221 -464 -333 -913 -288 -359 37
-699 170 -986 387 l-83 62 0 -508 0 -508 78 -36 c492 -225 1373 -284 1970
-132 504 127 845 407 982 805 81 237 91 576 24 839 -29 115 -112 289 -183 382
-123 162 -326 325 -576 462 -110 61 -177 92 -530 247 -391 172 -590 311 -668
469 -29 60 -32 73 -32 161 1 84 4 101 29 153 79 156 277 262 551 296 380 46
877 -67 1203 -275 l52 -34 0 479 0 479 -112 36 c-295 94 -627 138 -1018 134
-102 0 -201 -3 -220 -5z"/>
<path d="M31857 12380 c-327 -32 -614 -109 -872 -235 -539 -263 -953 -738
-1144 -1312 -148 -446 -178 -991 -79 -1493 80 -410 260 -759 542 -1049 232
-238 477 -390 796 -495 284 -93 490 -121 885 -120 513 1 880 65 1208 211 l57
26 0 468 0 468 -129 -65 c-492 -246 -1122 -294 -1551 -117 -330 136 -583 411
-700 763 -116 346 -116 812 1 1162 132 396 441 704 833 832 259 85 607 98 936
34 148 -28 353 -98 492 -167 l118 -59 -2 496 -3 496 -105 34 c-131 41 -353 86
-530 107 -156 19 -620 28 -753 15z"/>
<path d="M33827 12272 c-26 -26 -47 -52 -47 -58 0 -5 23 -32 50 -59 l50 -49
50 49 c28 27 50 54 50 60 0 10 -91 105 -101 105 -2 0 -26 -22 -52 -48z"/>
<path d="M6090 10031 l0 -2281 510 0 510 0 0 779 0 779 383 5 c275 3 410 9
482 20 429 67 740 209 998 457 223 214 352 452 414 765 25 128 25 488 -1 630
-109 602 -470 949 -1118 1076 -211 41 -242 42 -1225 46 l-953 4 0 -2280z
m1720 1461 c213 -47 369 -159 448 -322 59 -122 76 -218 69 -394 -9 -228 -52
-342 -177 -466 -86 -86 -156 -127 -280 -163 -126 -37 -238 -47 -512 -47 l-248
0 0 711 0 711 303 -5 c256 -4 316 -8 397 -25z"/>
<path d="M9750 10031 l0 -2281 510 0 510 0 0 876 0 876 188 -4 188 -3 80 -39
c108 -54 213 -161 330 -337 49 -74 256 -412 459 -751 l370 -618 589 0 588 0
-14 23 c-8 12 -212 333 -453 712 -548 862 -585 915 -772 1096 -105 101 -183
158 -263 191 -28 11 -50 24 -50 27 0 4 38 19 84 34 194 63 399 184 543 320
285 270 422 645 383 1056 -27 287 -114 499 -277 671 -210 221 -480 339 -933
406 -101 15 -234 18 -1087 21 l-973 4 0 -2280z m1646 1509 c319 -40 492 -184
540 -452 62 -337 -122 -659 -434 -762 -115 -38 -191 -46 -474 -46 l-258 0 0
635 0 635 273 0 c150 0 309 -5 353 -10z"/>
<path d="M21115 12178 c34 -73 358 -738 719 -1478 l656 -1344 0 -803 0 -803
515 0 515 0 0 815 0 816 735 1458 c404 802 735 1461 735 1465 0 3 -243 5 -540
4 l-541 -3 -370 -850 c-203 -467 -382 -886 -398 -931 -16 -44 -39 -125 -51
-179 -20 -95 -26 -114 -33 -104 -2 2 -25 82 -51 178 -44 160 -77 242 -416
1030 l-368 856 -585 3 -586 2 64 -132z"/>
<path d="M25190 10030 l0 -2280 486 0 486 0 -5 1518 c-3 892 -9 1558 -15 1617
-9 89 -7 131 5 99 16 -44 280 -454 1128 -1751 l969 -1483 518 0 518 0 0 2280
0 2280 -485 0 -485 0 0 -1394 c0 -860 4 -1462 11 -1571 5 -97 9 -179 7 -180
-2 -2 -39 57 -83 130 -44 73 -501 781 -1015 1574 l-935 1440 -552 1 -553 0 0
-2280z"/>
<path d="M5319 12249 l-42 -50 44 -45 c24 -24 48 -44 53 -44 13 0 96 81 96 94
0 15 -82 96 -96 96 -7 0 -31 -23 -55 -51z"/>
<path d="M4841 12216 l-64 -65 58 -66 c32 -37 65 -69 72 -72 16 -6 47 20 104
89 l40 47 -62 65 c-34 36 -67 66 -73 66 -6 0 -40 -29 -75 -64z"/>
<path d="M34281 12216 c-35 -35 -62 -68 -60 -74 2 -5 33 -40 68 -78 l64 -68
68 74 68 75 -67 68 c-36 37 -69 67 -72 67 -3 0 -34 -29 -69 -64z"/>
<path d="M4527 12112 c-48 -48 -87 -93 -87 -99 0 -7 42 -56 92 -109 l93 -97
92 98 92 98 -92 98 c-51 55 -94 99 -97 99 -3 0 -45 -39 -93 -88z"/>
<path d="M4165 12120 l-69 -69 65 -68 c35 -37 66 -69 69 -71 3 -1 37 29 75 68
l70 70 -70 70 -70 70 -70 -70z"/>
<path d="M34556 12101 l-88 -91 87 -95 c48 -52 93 -95 100 -95 7 0 50 40 94
89 l82 90 -93 96 -93 97 -89 -91z"/>
<path d="M34091 12026 c-35 -35 -62 -68 -60 -74 2 -5 33 -40 68 -78 l64 -67
68 74 67 74 -66 68 c-37 37 -69 67 -72 67 -3 0 -34 -29 -69 -64z"/>
<path d="M5050 12026 l-53 -55 57 -65 c32 -37 61 -66 66 -66 11 0 111 112 108
121 -5 13 -109 119 -116 119 -4 0 -32 -25 -62 -54z"/>
<path d="M4798 11853 c-38 -38 -68 -72 -68 -77 0 -12 122 -136 134 -136 6 0
39 31 72 68 l61 68 -66 72 -66 73 -67 -68z"/>
<path d="M34351 11843 c-33 -38 -61 -73 -61 -78 0 -6 29 -40 65 -75 l65 -64
65 64 c36 35 65 68 65 73 0 10 -122 147 -132 147 -3 0 -34 -30 -67 -67z"/>
<path d="M4597 11592 c-42 -42 -77 -84 -77 -92 0 -9 36 -51 80 -95 l80 -80 80
80 c44 44 80 83 80 88 0 11 -150 177 -159 177 -4 0 -41 -35 -84 -78z"/>
<path d="M34502 11577 c-39 -40 -72 -77 -72 -82 0 -6 35 -45 78 -88 l77 -77
79 79 79 79 -74 81 c-41 45 -79 81 -84 81 -6 0 -43 -33 -83 -73z"/>
<path d="M34592 8597 c-45 -45 -82 -87 -82 -92 0 -6 37 -47 83 -93 l82 -82 85
85 84 84 -84 88 c-47 49 -85 89 -85 90 -1 1 -38 -35 -83 -80z"/>
<path d="M4691 8596 c-55 -55 -72 -78 -67 -93 3 -10 37 -50 76 -88 l70 -69 79
78 80 79 -76 84 c-41 46 -78 83 -82 83 -4 0 -39 -33 -80 -74z"/>
<path d="M4861 8303 l-60 -66 19 -26 c10 -14 40 -47 67 -73 l49 -48 68 69 69
69 -63 71 c-35 39 -69 71 -76 71 -7 0 -40 -30 -73 -67z"/>
<path d="M34418 8296 l-67 -73 70 -69 69 -68 65 64 c36 35 65 69 65 75 0 6
-30 41 -68 78 l-67 67 -67 -74z"/>
<path d="M4613 8101 c-46 -49 -83 -93 -83 -98 0 -4 40 -49 90 -98 l90 -90 85
85 c47 47 84 90 83 97 -2 10 -177 195 -182 192 0 0 -38 -40 -83 -88z"/>
<path d="M5121 8119 l-64 -69 64 -69 c35 -38 69 -69 74 -69 6 0 39 31 74 69
l65 70 -69 69 c-38 39 -72 69 -75 69 -3 -1 -34 -32 -69 -70z"/>
<path d="M34636 8098 c-47 -51 -86 -97 -86 -103 0 -6 42 -52 93 -103 l93 -92
94 95 94 96 -99 100 c-55 54 -100 99 -101 99 -1 0 -41 -41 -88 -92z"/>
<path d="M34171 8103 c-28 -31 -51 -60 -51 -63 0 -3 27 -32 60 -65 l60 -59 55
54 c30 30 55 59 55 65 0 11 -111 125 -122 125 -4 0 -29 -26 -57 -57z"/>
<path d="M35048 8023 l-67 -68 66 -73 66 -73 69 67 c37 38 68 72 68 76 0 9
-120 138 -129 138 -4 0 -37 -30 -73 -67z"/>
<path d="M4931 7929 l-65 -70 65 -66 c35 -37 65 -70 67 -72 1 -3 35 27 75 67
l72 72 -70 70 c-38 38 -72 69 -75 69 -3 -1 -34 -32 -69 -70z"/>
<path d="M34367 7929 l-67 -73 63 -65 c34 -36 66 -68 71 -70 10 -4 136 119
136 134 0 6 -31 41 -69 79 l-68 67 -66 -72z"/>
<path d="M33927 7852 c-26 -26 -47 -51 -47 -54 0 -13 83 -98 96 -98 6 0 31 23
55 51 l42 51 -49 49 -49 49 -48 -48z"/>
<path d="M5417 7839 l-46 -53 47 -52 c26 -28 52 -52 58 -53 6 -1 32 22 58 49
l48 51 -48 52 c-27 29 -54 53 -60 55 -6 2 -32 -21 -57 -49z"/>
<path d="M4492 7777 c-34 -34 -62 -69 -62 -78 0 -8 30 -44 66 -79 l65 -65 65
68 c36 38 64 72 62 77 -5 14 -119 140 -126 140 -4 0 -36 -28 -70 -63z"/>
<path d="M34805 7771 l-68 -70 58 -66 c32 -37 65 -70 74 -73 10 -4 36 17 78
62 l63 68 -19 27 c-11 14 -41 47 -68 73 l-49 48 -69 -69z"/>
<path d="M4728 7686 c-43 -45 -78 -86 -78 -90 0 -13 144 -165 157 -166 6 0 48
39 92 87 l82 87 -83 83 c-45 46 -85 82 -88 82 -3 -1 -40 -38 -82 -83z"/>
<path d="M5073 7691 l-63 -67 67 -73 66 -72 68 67 c38 38 69 72 69 77 0 14
-122 137 -134 136 -6 -1 -39 -32 -73 -68z"/>
<path d="M34536 7679 c-42 -44 -76 -84 -76 -87 0 -4 36 -45 80 -92 l79 -85 80
85 c44 47 81 88 81 92 0 9 -151 168 -160 168 -4 0 -42 -36 -84 -81z"/>
<path d="M4176 7645 l-98 -105 99 -104 98 -105 102 101 c78 78 100 105 93 117
-5 9 -51 58 -102 109 l-94 92 -98 -105z"/>
<path d="M34215 7670 l-69 -69 65 -68 c35 -37 69 -69 74 -71 6 -1 39 29 74 69
l64 71 -69 69 -69 69 -70 -70z"/>
<path d="M35067 7632 c-53 -53 -97 -102 -97 -108 0 -6 10 -19 21 -30 12 -10
57 -59 102 -107 l80 -88 -34 -35 -33 -34 105 -106 105 -105 105 106 c57 58
104 110 104 115 0 5 -44 56 -97 113 l-97 104 24 23 c14 13 25 27 25 32 0 9
-200 218 -209 218 -3 0 -50 -44 -104 -98z"/>
<path d="M5666 7676 c-20 -23 -36 -47 -36 -53 0 -5 18 -27 40 -48 l40 -39 47
46 47 47 -40 45 c-21 24 -44 45 -51 45 -6 1 -28 -19 -47 -43z"/>
<path d="M33665 7650 l-39 -40 42 -43 42 -42 42 42 42 43 -39 40 c-21 22 -42
40 -45 40 -3 0 -24 -18 -45 -40z"/>
<path d="M5395 7580 l-69 -69 65 -68 c35 -37 69 -68 74 -68 6 0 39 31 74 68
l65 68 -70 70 -69 69 -70 -70z"/>
<path d="M33902 7587 c-34 -34 -62 -67 -62 -73 0 -5 31 -40 68 -77 l69 -68 61
67 c34 37 62 72 62 78 0 11 -120 136 -131 136 -2 0 -33 -28 -67 -63z"/>
<path d="M3782 7557 c-39 -40 -72 -77 -72 -82 0 -6 33 -43 73 -83 l74 -73 72
77 c39 42 70 80 69 85 -3 7 -138 149 -142 149 -1 0 -34 -33 -74 -73z"/>
<path d="M35511 7540 l-63 -70 51 -59 c83 -95 72 -94 153 -14 l70 70 -67 72
c-37 39 -71 71 -75 71 -4 0 -35 -32 -69 -70z"/>
<path d="M4943 7408 c-40 -41 -73 -78 -73 -82 0 -10 141 -161 150 -161 3 0 37
34 77 75 l71 75 -76 83 -77 83 -72 -73z"/>
<path d="M4005 7365 l-98 -106 24 -27 c61 -70 195 -202 204 -201 5 1 54 48
108 104 l98 102 -111 117 c-62 64 -116 116 -120 116 -4 0 -51 -47 -105 -105z"/>
<path d="M34345 7370 l-70 -70 71 -71 71 -71 64 67 c35 37 65 70 67 73 1 4
-28 38 -66 75 l-68 67 -69 -70z"/>
<path d="M4491 7356 l-74 -74 79 -86 c43 -47 81 -86 84 -86 3 0 39 36 79 80
l73 81 -73 77 c-40 42 -78 78 -84 80 -5 1 -43 -31 -84 -72z"/>
<path d="M34764 7346 c-36 -40 -66 -77 -66 -80 1 -4 35 -44 77 -88 l76 -81 75
74 c41 40 74 77 74 82 0 14 -143 167 -156 167 -7 0 -43 -33 -80 -74z"/>
</g>
</svg>
