<svg xmlns="http://www.w3.org/2000/svg" width="5333.333" height="2666.667" viewBox="0 0 4000 2000" preserveAspectRatio="xMidYMid meet" xmlns:v="https://vecta.io/nano"><path d="M392.1 713.1l-10.4 10.8 10.2 10.7 10.2 10.7-2.7 2.8-2.7 2.8 10.3 11c5.7 6.1 10.6 11.1 10.9 11.1.4 0 5.3-4.6 10.9-10.3l10.3-10.3-10.7-11.3-10.7-11.2 3.3-3.4 3.4-3.5-10-10.2c-5.4-5.7-10.3-10.4-10.9-10.4-.5-.1-5.7 4.7-11.4 10.7zm3120-.4c-5.6 5.8-10 11-9.9 11.4.2.4 5.2 5.8 11.3 12l10.9 11.2 10.4-10.7 10.3-10.7-11.2-11.9-11.4-12c-.2 0-4.9 4.8-10.4 10.7zm-3070 4.7c-4 4.1-7.2 7.9-7 8.4.6 1.5 15 16.2 15.9 16.2.5 0 4-3.5 7.8-7.7l7-7.8-7.2-7.9c-4-4.4-7.7-8.1-8.2-8.3s-4.2 3-8.3 7.1zm3027.6 1.4l-7.7 7.7 7.6 8.3c4.2 4.6 8.2 8.2 8.8 8s4.4-3.7 8.3-7.8l7.2-7.6-8.2-8.2-8.2-8.2-7.8 7.8zm-2983.6 4.3l-6.3 6.9 6.8 7 6.9 7.1 6.9-7 6.9-6.9-6.3-7.1c-3.5-3.9-6.8-7.1-7.4-7-.6 0-4 3.2-7.5 7zm2940 .3c-8.5 8.6-8.6 7.1 1.3 17.3 3.3 3.5 6.5 6.3 7.2 6.3.6 0 4.1-3.4 7.9-7.6l6.8-7.6-7.9-7.9-7.9-7.9-7.4 7.4zm116.2 16.5l-7.1 7.6 7.3 8 7.3 8 2.7-2.5c1.5-1.4 5-5.1 7.7-8.3l5-5.7-7.3-7.5c-4-4.1-7.5-7.4-7.8-7.4-.3.1-3.8 3.6-7.8 7.8zm-3172.5-.2l-6.7 6.8 7.1 7.4 7 7.5 6.3-7c3.5-3.8 6.4-7.4 6.5-7.9 0-1-12-13.5-13.1-13.5-.2 0-3.4 3-7.1 6.7zm3130.7.5c-3.9 4-8.3 8.8-9.9 10.5l-2.9 3.3 9.4 9.7c5.1 5.4 9.8 10 10.2 10.2 1 .4 15.6-13.7 18.7-18l1.9-2.5-10.2-10.2-10.2-10.2-7 7.2zm-2969.4 3.3c-3.3 3.6-6.1 7.1-6.1 7.8s2.9 4.2 6.5 7.7l6.5 6.4 6.5-6.4c3.6-3.5 6.5-6.8 6.5-7.3 0-1.2-12-14.7-13-14.7-.4 0-3.5 2.9-6.9 6.5zm2851-.1c-3.5 3.5-6.2 6.9-6 7.4.2.6 3.3 4 6.7 7.6l6.4 6.6 6.8-7.2 6.9-7.3-6.7-6.8c-3.7-3.7-6.9-6.7-7.2-6.7s-3.4 2.9-6.9 6.4zm-2917.3 6.7c-4 4.4-7.3 8.4-7.3 8.8s3.5 4.5 7.9 9.2l7.8 8.4 8.4-9 8.4-8.9-8.2-8.3c-4.5-4.6-8.6-8.3-9-8.3-.3 0-4 3.6-8 8.1zm2980.9 1.4l-7.9 8.5 7.7 8.3c4.3 4.5 8.1 8.3 8.4 8.5.4.1 4.5-3.9 9-8.9l8.4-9.1-7.9-7.9c-4.3-4.3-8.3-7.9-8.9-7.9-.5 0-4.5 3.8-8.8 8.5zm-2946.6 1.3l-6 6.9 6.6 7.2 6.6 7.2 6.8-6.7c3.8-3.8 6.9-7.2 6.9-7.7 0-1.4-12.2-13.7-13.6-13.7-.6 0-3.9 3.1-7.3 6.8zm2914.4 2.2l-7 7 7.3 7.3 7.3 7.2 6.5-7 6.4-7.5c0-.3-3-3.6-6.8-7.3l-6.8-6.7-6.9 7zM560 756.5l-4.4 4.5 4.2 4.2 4.2 4.2 4-3.9c2.2-2.1 4-4.4 4-5s-1.7-2.8-3.8-4.8l-3.8-3.7-4.4 4.5zm2799 2l-4.4 4.5 4.7 4.8 4.7 4.7 4.6-4.7 4.7-4.6-3.9-4.6c-2.1-2.5-4.4-4.5-4.9-4.6-.6 0-3.1 2-5.5 4.5zM321 772.4L217.5 879.5c-46.8 48.3-51.5 53.5-57.4 63-19.6 31.4-21.1 62.5-4.6 95.5 8.5 17 18.4 28.8 67.1 80 26.7 28.1 110.8 111.9 121.3 120.9l5.4 4.6 11.4-12 11.4-12 12.6 13 12.6 13 13.8-14.5 13.9-14.5 2.6 3.2c1.4 1.8 2.9 3.3 3.3 3.3.5 0 4.7-3.9 9.4-8.7l8.6-8.8-2.9-3c-1.7-1.7-3-3.6-3-4.3s5.7-7.3 12.8-14.8c13.1-14 14.1-15.2 12.6-16.3-.5-.3-6.3-6.1-12.8-12.8l-11.9-12.2 7.2-7.7 7.2-7.7-28.8-29.1c-72.3-72.8-75.1-75.8-79.7-87.6-4.6-11.9-2.5-26.1 5.5-37.5 6.2-8.9 37.8-43.7 75-82.6l16.9-17.6-5.6-6.2c-4.9-5.4-5.4-6.3-4.3-7.8.8-1 6.2-7.1 12.1-13.8 6-6.6 10.8-12.5 10.8-13 0-.6-6.2-7.2-13.8-14.8L432.5 803l-11.9 11.6-11.9 11.5-7.9-7.8c-4.3-4.2-7.8-8.2-7.8-8.8.1-.5 5.2-6.4 11.5-13l11.3-11.9-7.8-8.6a434.76 434.76 0 0 0-14.5-15l-6.7-6.5-11.7 12.3-11.8 12.2-11.8-12c-6.6-6.6-12.4-12-13-11.9-.5.1-8.4 7.8-17.5 17.3zm65 37.3c0 1.4-20 23-21.5 23.2-.6.1-6-4.9-12-10.9-12.8-12.8-12.9-9.8.8-26.2l9.1-10.9 11.8 11.8c6.5 6.5 11.8 12.3 11.8 13zm-3.6 366.8l11.8 12.5-12.3 12.8-12.9 13c-.5.2-14.8-14.8-20.6-21.7l-2.6-3.1 11.7-13c6.4-7.1 12-13 12.4-13s6 5.6 12.5 12.5zm41.3 4.9l7.8 7.5-8.6 8.6-8.6 8.7-6.9-7.2c-3.8-4-6.9-7.7-6.9-8.3 0-1.5 12.8-16.5 14.2-16.6.6-.1 4.7 3.2 9 7.3zM440.6 762l-6.7 7.1 6.2 6.7c3.4 3.7 6.7 6.9 7.2 7.1 1.1.4 13.7-11.9 13.7-13.4 0-.6-3.1-4.1-6.8-7.8l-6.9-6.8-6.7 7.1zm3083.5 7.1l-13.4 14-3.4-3.2-3.3-3.3-8.5 8.4c-4.7 4.7-8.5 8.9-8.5 9.4 0 .6 1.4 2.5 3.1 4.2l3.2 3.3-13.8 14.6-13.7 14.7 12.6 12.8c6.9 6.9 12.6 13 12.6 13.4 0 .5-3 4.2-6.7 8.3l-6.6 7.4 8.9 9.2 48.1 48.7 42.4 43.5c1.7 2.2 4.8 7.4 6.8 11.5 3.4 7.1 3.6 8.1 3.6 17.5 0 16.5-2 19.7-36.9 57.9l-40.3 43.1-22 23 5.3 6c3 3.3 5.4 6.3 5.4 6.6s-4.8 5.9-10.6 12.5l-12.1 13.6c-1.4 1.6-.4 2.9 11.8 15.8 7.4 7.7 13.9 14 14.4 14 .6 0 6.2-5 12.4-11 6.2-6.1 11.6-11 12-11s4.1 3.7 8.2 8.3l7.6 8.2-11.8 12.4-11.7 12.5 14 14.8c7.8 8.1 14.5 14.8 14.9 14.8s6-5.5 12.4-12.3l11.6-12.2 11.7 12.4c6.5 6.8 12.2 12.2 12.7 12 1-.4 15.6-15.3 61.1-62.4l66.9-69c21.9-22.6 42.4-44.6 45.7-48.9 7.8-10.5 15.2-25.8 18.3-38 5-19.9 2.7-40.9-6.9-61.1-9.9-20.8-18.7-31.3-78.4-93.8C3663.7 830.5 3589 757 3586.5 757c-.5 0-5.8 5.2-11.9 11.6l-11.1 11.6-12.4-12.6c-6.8-6.9-12.7-12.6-13-12.6s-6.6 6.3-14 14.1zm54.2 28c5.9 6.4 10.7 12 10.7 12.5s-3.3 4.5-7.2 8.9l-11.5 12.9-4.4 4.9-12-11.9c-6.5-6.5-11.9-12.3-11.9-12.9 0-1.3 24-26.7 24.9-26.3.4.2 5.5 5.5 11.4 11.9zm-49.4 4.3l7.3 7.4-7.2 8.3c-3.9 4.6-7.7 8.5-8.3 8.7-.7.1-4.6-3.1-8.6-7.2l-7.5-7.5 2.4-2.8c4.6-5.3 13.4-14.3 14-14.3.3 0 3.9 3.3 7.9 7.4zm53.8 376.8l11.2 11.3-10.7 12.9-10.7 12.8-11.7-12.3c-6.5-6.8-11.6-12.9-11.5-13.4.5-1.6 20.1-22.3 21.2-22.4.6-.1 6.1 5 12.2 11.1zm-110.6-415.1l-6.4 7.1 6.9 6.9 6.9 6.9 6.9-6.9 6.9-6.9-6.4-7.1c-3.5-3.9-6.8-7.1-7.4-7-.5 0-3.9 3.2-7.4 7zm-1928.6-1.5c-44 4.5-75.7 14.7-105.5 34.2-52.5 34.3-87.1 90.7-97.1 158.6-8.6 59-1.3 116.2 20.6 161.1 24.8 51 68.7 89.4 121.5 106.3 25.1 8.1 44 10.7 76 10.7 27.5-.1 39.4-1.4 61.5-7 53.4-13.4 98.5-46.8 127.5-94.5 25.6-42.1 38.2-100.1 34.1-157.5-4.8-67.2-25.6-115.6-66.7-155.5-31.4-30.5-65.6-47-113-54.5-9.5-1.5-49.8-2.8-58.9-1.9zm47 91.8c19 4.9 33.6 13.5 47.1 27.9 24.5 26.1 37.4 66.8 37.4 117.7 0 89.7-43.7 144.8-115 145-41.7.1-75.8-21.1-96.4-60-18.7-35.5-23.8-93.6-12.1-140 6.6-26.2 19.5-49.3 36.7-65.6 4.1-3.9 9.6-8.5 12.2-10.3 12-8.3 29.7-15 45.1-17 12.2-1.7 33.6-.6 45 2.3zm369.5-91.7c-27.8 2.7-47.4 6.4-64.3 12.3-38.8 13.3-65.7 35.5-80.8 66.5-13.7 28.2-15.6 68.2-4.8 99.3 6.2 17.8 14.9 31.1 30.1 45.8 19.6 19.2 37.5 29.9 79.8 47.9 41.4 17.6 59.6 27.8 72.6 40.9 4.8 4.8 8.2 9.3 10.5 14.1 3.2 6.5 3.4 7.6 3.4 17 0 9.3-.2 10.5-3.3 16.7-10.9 22.1-46.4 33.3-91.3 28.8-35.9-3.7-69.9-17-98.6-38.7l-8.3-6.2v50.8 50.8l7.8 3.6c49.2 22.5 137.3 28.4 197 13.2 50.4-12.7 84.5-40.7 98.2-80.5 8.1-23.7 9.1-57.6 2.4-83.9-2.9-11.5-11.2-28.9-18.3-38.2-12.3-16.2-32.6-32.5-57.6-46.2-11-6.1-17.7-9.2-53-24.7-39.1-17.2-59-31.1-66.8-46.9-2.9-6-3.2-7.3-3.2-16.1.1-8.4.4-10.1 2.9-15.3 7.9-15.6 27.7-26.2 55.1-29.6 38-4.6 87.7 6.7 120.3 27.5l5.2 3.4v-47.9-47.9l-11.2-3.6c-29.5-9.4-62.7-13.8-101.8-13.4-10.2 0-20.1.3-22 .5zm1225.7.3c-32.7 3.2-61.4 10.9-87.2 23.5-53.9 26.3-95.3 73.8-114.4 131.2-14.8 44.6-17.8 99.1-7.9 149.3 8 41 26 75.9 54.2 104.9 23.2 23.8 47.7 39 79.6 49.5 28.4 9.3 49 12.1 88.5 12 51.3-.1 88-6.5 120.8-21.1l5.7-2.6v-46.8-46.8l-12.9 6.5c-49.2 24.6-112.2 29.4-155.1 11.7-33-13.6-58.3-41.1-70-76.3-11.6-34.6-11.6-81.2.1-116.2 13.2-39.6 44.1-70.4 83.3-83.2 25.9-8.5 60.7-9.8 93.6-3.4 14.8 2.8 35.3 9.8 49.2 16.7l11.8 5.9-.2-49.6-.3-49.6-10.5-3.4c-13.1-4.1-35.3-8.6-53-10.7-15.6-1.9-62-2.8-75.3-1.5zm197 10.8c-2.6 2.6-4.7 5.2-4.7 5.8 0 .5 2.3 3.2 5 5.9l5 4.9 5-4.9c2.8-2.7 5-5.4 5-6 0-1-9.1-10.5-10.1-10.5-.2 0-2.6 2.2-5.2 4.8zM609 996.9V1225h51 51v-77.9-77.9l38.3-.5c27.5-.3 41-.9 48.2-2 42.9-6.7 74-20.9 99.8-45.7 22.3-21.4 35.2-45.2 41.4-76.5 2.5-12.8 2.5-48.8-.1-63-10.9-60.2-47-94.9-111.8-107.6-21.1-4.1-24.2-4.2-122.5-4.6l-95.3-.4v228zm172-146.1c21.3 4.7 36.9 15.9 44.8 32.2 5.9 12.2 7.6 21.8 6.9 39.4-.9 22.8-5.2 34.2-17.7 46.6-8.6 8.6-15.6 12.7-28 16.3-12.6 3.7-23.8 4.7-51.2 4.7H711v-71.1-71.1l30.3.5c25.6.4 31.6.8 39.7 2.5zm194 146.1V1225h51 51v-87.6-87.6l18.8.4 18.8.3 8 3.9c10.8 5.4 21.3 16.1 33 33.7 4.9 7.4 25.6 41.2 45.9 75.1l37 61.8h58.9 58.8l-1.4-2.3c-.8-1.2-21.2-33.3-45.3-71.2-54.8-86.2-58.5-91.5-77.2-109.6-10.5-10.1-18.3-15.8-26.3-19.1-2.8-1.1-5-2.4-5-2.7 0-.4 3.8-1.9 8.4-3.4 19.4-6.3 39.9-18.4 54.3-32 28.5-27 42.2-64.5 38.3-105.6-2.7-28.7-11.4-49.9-27.7-67.1-21-22.1-48-33.9-93.3-40.6-10.1-1.5-23.4-1.8-108.7-2.1l-97.3-.4v228zM1139.6 846c31.9 4 49.2 18.4 54 45.2 6.2 33.7-12.2 65.9-43.4 76.2-11.5 3.8-19.1 4.6-47.4 4.6H1077v-63.5V845h27.3c15 0 30.9.5 35.3 1zm971.9-63.8c3.4 7.3 35.8 73.8 71.9 147.8l65.6 134.4v80.3 80.3h51.5 51.5v-81.5-81.6l73.5-145.8 73.5-146.5c0-.3-24.3-.5-54-.4l-54.1.3-37 85-39.8 93.1c-1.6 4.4-3.9 12.5-5.1 17.9-2 9.5-2.6 11.4-3.3 10.4-.2-.2-2.5-8.2-5.1-17.8-4.4-16-7.7-24.2-41.6-103l-36.8-85.6-58.5-.3-58.6-.2 6.4 13.2zM2519 997v228h48.6 48.6l-.5-151.8-1.5-161.7c-.9-8.9-.7-13.1.5-9.9 1.6 4.4 28 45.4 112.8 175.1l96.9 148.3h51.8 51.8V997 769h-48.5-48.5v139.4l1.1 157.1.7 18c-.2.2-3.9-5.7-8.3-13s-50.1-78.1-101.5-157.4l-93.5-144-55.2-.1H2519v228zM531.9 775.1l-4.2 5 4.4 4.5c2.4 2.4 4.8 4.4 5.3 4.4 1.3 0 9.6-8.1 9.6-9.4 0-1.5-8.2-9.6-9.6-9.6-.7 0-3.1 2.3-5.5 5.1zm-47.8 3.3l-6.4 6.5 5.8 6.6c3.2 3.7 6.5 6.9 7.2 7.2 1.6.6 4.7-2 10.4-8.9l4-4.7-6.2-6.5c-3.4-3.6-6.7-6.6-7.3-6.6s-4 2.9-7.5 6.4zm2944 0c-3.5 3.5-6.2 6.8-6 7.4.2.5 3.3 4 6.8 7.8l6.4 6.8 6.8-7.4 6.8-7.5-6.7-6.8c-3.6-3.7-6.9-6.7-7.2-6.7s-3.4 2.9-6.9 6.4zM452.7 788.8c-4.8 4.8-8.7 9.3-8.7 9.9 0 .7 4.2 5.6 9.2 10.9l9.3 9.7 9.2-9.8 9.2-9.8-9.2-9.8c-5.1-5.5-9.4-9.9-9.7-9.9s-4.5 3.9-9.3 8.8zm-36.2-.8l-6.9 6.9 6.5 6.8 6.9 7.1c.3.1 3.7-2.9 7.5-6.8l7-7-7-7-7-7-7 7zm3039.1 1.9l-8.8 9.1 8.7 9.5c4.8 5.2 9.3 9.5 10 9.5s5-4 9.4-8.9l8.2-9-9.3-9.6-9.3-9.7-8.9 9.1zm-46.5 7.5c-3.5 3.5-6.2 6.8-6 7.4.2.5 3.3 4 6.8 7.8l6.4 6.7 6.8-7.4 6.7-7.4-6.6-6.8c-3.7-3.7-6.9-6.7-7.2-6.7s-3.4 2.9-6.9 6.4zm-2904.1 0l-5.3 5.5 5.7 6.5c3.2 3.7 6.1 6.6 6.6 6.6 1.1 0 11.1-11.2 10.8-12.1-.5-1.3-10.9-11.9-11.6-11.9-.4 0-3.2 2.5-6.2 5.4zm-25.2 17.3c-3.8 3.8-6.8 7.2-6.8 7.7 0 1.2 12.2 13.6 13.4 13.6.6 0 3.9-3.1 7.2-6.8l6.1-6.8-6.6-7.2-6.6-7.3-6.7 6.8zm2955.3 1c-3.3 3.8-6.1 7.3-6.1 7.8 0 .6 2.9 4 6.5 7.5l6.5 6.4 6.5-6.4c3.6-3.5 6.5-6.8 6.5-7.3 0-1-12.2-14.7-13.2-14.7-.3 0-3.4 3-6.7 6.7zM459.7 840.8c-4.2 4.2-7.7 8.4-7.7 9.2 0 .9 3.6 5.1 8 9.5l8 8 8-8c4.4-4.4 8-8.3 8-8.8 0-1.1-15-17.7-15.9-17.7-.4 0-4.1 3.5-8.4 7.8zm2990.5 1.5c-3.9 4-7.2 7.7-7.2 8.2 0 .6 3.5 4.5 7.8 8.8l7.7 7.7 7.9-7.9 7.9-7.9-7.4-8.1c-4.1-4.5-7.9-8.1-8.4-8.1-.6 0-4.3 3.3-8.3 7.3zm9 298c-4.5 4.5-8.2 8.7-8.2 9.2 0 .6 3.7 4.7 8.3 9.3l8.2 8.2 8.5-8.5 8.4-8.4-8.4-8.8-8.5-9c-.1-.1-3.8 3.5-8.3 8zm-2990.1.1c-5.5 5.5-7.2 7.8-6.7 9.3.3 1 3.7 5 7.6 8.8l7 6.9 7.9-7.8 8-7.9-7.6-8.4c-4.1-4.6-7.8-8.3-8.2-8.3s-3.9 3.3-8 7.4zm17 29.3l-6 6.6 1.9 2.6c1 1.4 4 4.7 6.7 7.3l4.9 4.8 6.8-6.9 6.9-6.9-6.3-7.1c-3.5-3.9-6.9-7.1-7.6-7.1s-4 3-7.3 6.7zm2955.7.7l-6.7 7.3 7 6.9 6.9 6.8 6.5-6.4c3.6-3.5 6.5-6.9 6.5-7.5s-3-4.1-6.8-7.8l-6.7-6.7-6.7 7.4zm-2980.5 19.5c-4.6 4.9-8.3 9.3-8.3 9.8 0 .4 4 4.9 9 9.8l9 9 8.5-8.5c4.7-4.7 8.4-9 8.3-9.7-.2-1-17.7-19.5-18.2-19.2l-8.3 8.8zm50.8-1.8l-6.4 6.9 6.4 6.9c3.5 3.8 6.9 6.9 7.4 6.9.6 0 3.9-3.1 7.4-6.9l6.5-7-6.9-6.9c-3.8-3.9-7.2-6.9-7.5-6.9-.3.1-3.4 3.2-6.9 7zm2951.5 2.1c-4.7 5.1-8.6 9.7-8.6 10.3s4.2 5.2 9.3 10.3l9.3 9.2 9.4-9.5 9.4-9.6-9.9-10-10.1-9.9c-.1 0-4.1 4.1-8.8 9.2zm-46.5-.5c-2.8 3.1-5.1 6-5.1 6.3s2.7 3.2 6 6.5l6 5.9 5.5-5.4c3-3 5.5-5.9 5.5-6.5 0-1.1-11.1-12.5-12.2-12.5-.4 0-2.9 2.6-5.7 5.7zm87.7 8l-6.7 6.8 6.6 7.3 6.6 7.3 6.9-6.7c3.7-3.8 6.8-7.2 6.8-7.6 0-.9-12-13.8-12.9-13.8-.4 0-3.7 3-7.3 6.7zm-3011.7 9.4l-6.5 7 6.5 6.6 6.7 7.2c.1.3 3.5-2.7 7.5-6.7l7.2-7.2-7-7c-3.8-3.8-7.2-6.9-7.5-6.9-.3.1-3.4 3.2-6.9 7zm2943.6 0l-6.7 7.3 6.3 6.5 7.1 7c1 .4 13.6-11.9 13.6-13.4 0-.6-3.1-4.1-6.9-7.9l-6.8-6.7-6.6 7.2zm-44 7.7c-2.6 2.6-4.7 5.1-4.7 5.4 0 1.3 8.3 9.8 9.6 9.8.6 0 3.1-2.3 5.5-5.1l4.2-5.1-4.9-4.9-4.9-4.9-4.8 4.8zm-2851 1.3l-4.6 5.3 4.7 5.2c2.6 2.8 5.2 5.2 5.8 5.3s3.2-2.2 5.8-4.9l4.8-5.1-4.8-5.2c-2.7-2.9-5.4-5.3-6-5.5s-3.2 2.1-5.7 4.9zm-92.5 6.2c-3.4 3.4-6.2 6.9-6.2 7.8 0 .8 3 4.4 6.6 7.9l6.5 6.5 6.5-6.8c3.6-3.8 6.4-7.2 6.2-7.7-.5-1.4-11.9-14-12.6-14-.4 0-3.6 2.8-7 6.3zm3031.3.6l-6.8 7 5.8 6.6c3.2 3.7 6.5 7 7.4 7.3 1 .4 3.6-1.7 7.8-6.2l6.3-6.8-1.9-2.7c-1.1-1.4-4.1-4.7-6.8-7.3l-4.9-4.8-6.9 6.9zm-3007.7 8.5c-4.3 4.5-7.8 8.6-7.8 9 0 1.3 14.4 16.5 15.7 16.6.6 0 4.8-3.9 9.2-8.7l8.2-8.7-8.3-8.3c-4.5-4.6-8.5-8.2-8.8-8.2-.3.1-4 3.8-8.2 8.3zm34.5-.5l-6.3 6.7 6.7 7.3 6.6 7.2 6.8-6.7c3.8-3.8 6.9-7.2 6.9-7.7 0-1.4-12.2-13.7-13.4-13.6-.6.1-3.9 3.2-7.3 6.8zm2946.3 1.2c-4.2 4.4-7.6 8.4-7.6 8.7 0 .4 3.6 4.5 8 9.2l7.9 8.5 8-8.5c4.4-4.7 8.1-8.8 8.1-9.2 0-.9-15.1-16.8-16-16.8-.4 0-4.2 3.6-8.4 8.1zm-3036 3.4l-9.8 10.5 9.9 10.4 9.8 10.5 10.2-10.1c7.8-7.8 10-10.5 9.3-11.7-.5-.9-5.1-5.8-10.2-10.9l-9.4-9.2-9.8 10.5zm3003.9-2.5l-6.9 6.9 6.5 6.8c3.5 3.7 6.9 6.9 7.4 7.1.6.1 3.9-2.9 7.4-6.9l6.4-7.1-6.9-6.9-6.9-6.9-7 7zm85.2 3.8c-5.3 5.3-9.7 10.2-9.7 10.8s1 1.9 2.1 3c1.2 1 5.7 5.9 10.2 10.7l8 8.8-3.4 3.5-3.3 3.4 10.5 10.6 10.5 10.5 10.5-10.6c5.7-5.8 10.4-11 10.4-11.5s-4.4-5.6-9.7-11.3l-9.7-10.4 2.4-2.3c1.4-1.3 2.5-2.7 2.5-3.2 0-.9-20-21.8-20.9-21.8-.3 0-5 4.4-10.4 9.8zm-2940.1-4.4c-2 2.3-3.6 4.7-3.6 5.3 0 .5 1.8 2.7 4 4.8l4 3.9 4.7-4.6 4.7-4.7-4-4.5c-2.1-2.4-4.4-4.5-5.1-4.5-.6-.1-2.8 1.9-4.7 4.3zm2799.9 2.6l-3.9 4 4.2 4.3 4.2 4.2 4.2-4.2 4.2-4.3-3.9-4c-2.1-2.2-4.2-4-4.5-4s-2.4 1.8-4.5 4zm-2827 7l-6.9 6.9 6.5 6.8c3.5 3.7 6.9 6.8 7.4 6.8.6 0 3.9-3.1 7.4-6.8l6.5-6.8-7-7-6.9-6.9-7 7zm2850.7-.7c-3.4 3.4-6.2 6.7-6.2 7.3 0 .5 3.1 4 6.8 7.7l6.9 6.8 6.1-6.7c3.4-3.7 6.2-7.2 6.2-7.8 0-1.1-12-13.6-13.1-13.6-.2 0-3.3 2.8-6.7 6.3zm-3012 3c-3.9 4-7.2 7.7-7.2 8.2 0 .6 3.3 4.3 7.3 8.3l7.4 7.3 7.2-7.7c3.9-4.2 7-8 6.9-8.5-.3-.7-13.8-14.9-14.2-14.9-.1 0-3.4 3.3-7.4 7.3zm3172.9 1.7l-6.3 7 5.1 5.9c8.3 9.5 7.2 9.4 15.3 1.4l7-7-6.7-7.2c-3.7-3.9-7.1-7.1-7.5-7.1s-3.5 3.2-6.9 7zm-3056.8 13.2c-4 4.1-7.3 7.8-7.3 8.2 0 1 14.1 16.1 15 16.1.3 0 3.7-3.4 7.7-7.5l7.1-7.5-7.6-8.3-7.7-8.3-7.2 7.3zm-93.8 4.3l-9.8 10.6 2.4 2.7c6.1 7 19.5 20.2 20.4 20.1.5-.1 5.4-4.8 10.8-10.4l9.8-10.2-11.1-11.7c-6.2-6.4-11.6-11.6-12-11.6s-5.1 4.7-10.5 10.5zm3034-.5l-7 7 7.1 7.1 7.1 7.1 6.4-6.7 6.7-7.3c.1-.4-2.8-3.8-6.6-7.5l-6.8-6.7-6.9 7zm-2985.4 1.4l-7.4 7.4 7.9 8.6c4.3 4.7 8.1 8.6 8.4 8.6s3.9-3.6 7.9-8l7.3-8.1-7.3-7.7c-4-4.2-7.8-7.8-8.4-8-.5-.1-4.3 3.1-8.4 7.2zm3027.3 1c-3.6 4-6.6 7.7-6.6 8 .1.4 3.5 4.4 7.7 8.8l7.6 8.1 7.5-7.4c4.1-4 7.4-7.7 7.4-8.2 0-1.4-14.3-16.7-15.6-16.7-.7 0-4.3 3.3-8 7.4z"/></svg>